<svg width="169" height="650" viewBox="0 0 169 650" fill="none" xmlns="http://www.w3.org/2000/svg">
<path d="M166.577 248.423H6.5769M6.5769 248.423L6.5769 283.423M6.5769 248.423L6.5769 213.423" stroke="#E01E41" stroke-width="4"/>
<path d="M105.038 374.423C63.0804 374.423 6.5769 374.423 6.5769 374.423L6.5769 304.895C6.5769 304.895 64.7587 304.423 105.038 304.423C145.318 304.423 166.577 317.666 166.577 338.004C166.577 358.341 146.996 374.423 105.038 374.423Z" stroke="#E01E41" stroke-width="4"/>
<path d="M150.986 459.25C135.989 466.969 37.829 467.976 16.9243 459.25C-3.98035 450.524 -0.344599 407.23 16.9243 400.853C34.1932 394.476 135.081 392.798 150.986 400.853C166.891 408.908 165.983 451.531 150.986 459.25Z" stroke="#E01E41" stroke-width="4"/>
<path d="M6.61962 556.423H166.577V532.725C166.577 532.725 166.684 511.77 157.229 498.6C147.361 484.855 114.643 482.011 98.543 493.86C87.2236 502.191 84.0014 516.136 84.0014 516.136C84.0014 516.136 79.4233 504.222 74.6533 498.6C62.1891 483.907 35.1833 487.468 19.0837 498.6C5.17528 508.216 6.61962 532.725 6.61962 532.725L6.61962 556.423Z" stroke="#E01E41" stroke-width="4"/>
<path d="M162.577 647.423L2.5769 614.173L162.577 577.423V647.423Z" stroke="#E01E41" stroke-width="4"/>
<path d="M3 96L163 96L163 166L3 166L77.4304 130.741L3 96Z" stroke="#E01E41" stroke-width="4"/>
<path d="M163 5V75L83 75M83 75H3L3 5L83 75ZM83 75V5" stroke="#E01E41" stroke-width="4"/>
</svg>
