<svg width="164" height="437" viewBox="0 0 164 437" fill="none" xmlns="http://www.w3.org/2000/svg">
<path d="M163.423 35.4229L6.57715 35.4229M6.57715 35.4229L6.57715 70.4229M6.57715 35.4229L6.57715 0.422852" stroke="#E01E41" stroke-width="4"/>
<path d="M101.346 161.423C60.9618 161.423 6.57715 161.423 6.57715 161.423L6.57715 91.8953C6.57715 91.8953 62.5772 91.4229 101.346 91.4229C140.116 91.4229 160.577 104.666 160.577 125.004C160.577 145.341 141.731 161.423 101.346 161.423Z" stroke="#E01E41" stroke-width="4"/>
<path d="M149.131 246.25C134.322 253.969 37.3885 254.976 16.7452 246.25C-3.89814 237.524 -0.307836 194.23 16.7452 187.853C33.7983 181.476 133.425 179.798 149.131 187.853C164.838 195.908 163.941 238.531 149.131 246.25Z" stroke="#E01E41" stroke-width="4"/>
<path d="M6.61827 343.423H160.618V319.725C160.618 319.725 160.721 298.77 151.618 285.6C142.118 271.855 110.618 269.011 95.1182 280.86C84.2204 289.191 81.1182 303.136 81.1182 303.136C81.1182 303.136 76.7105 291.222 72.1182 285.6C60.1182 270.907 34.1182 274.468 18.6182 285.6C5.22772 295.216 6.61827 319.725 6.61827 319.725L6.61827 343.423Z" stroke="#E01E41" stroke-width="4"/>
<path d="M160.203 434.423L2.57715 401.173L160.203 364.423V434.423Z" stroke="#E01E41" stroke-width="4"/>
</svg>
