<svg width="437" height="163" viewBox="0 0 437 163" fill="none" xmlns="http://www.w3.org/2000/svg">
<path d="M402 162.846V6M402 6H367M402 6H437" stroke="#E01E41" stroke-width="4"/>
<path d="M276 100.769C276 60.3846 276 6 276 6H345.528C345.528 6 346 62 346 100.769C346 139.538 332.757 160 312.419 160C292.081 160 276 141.154 276 100.769Z" stroke="#E01E41" stroke-width="4"/>
<path d="M191.173 148.554C183.454 133.745 182.447 36.8114 191.173 16.1681C199.899 -4.47529 243.193 -0.884984 249.57 16.1681C255.947 33.2211 257.625 132.847 249.57 148.554C241.515 164.261 198.892 163.363 191.173 148.554Z" stroke="#E01E41" stroke-width="4"/>
<path d="M94 6.04113V160.041H117.698C117.698 160.041 138.652 160.144 151.823 151.041C165.568 141.541 168.412 110.041 156.563 94.541C148.232 83.6432 134.287 80.541 134.287 80.541C134.287 80.541 146.2 76.1334 151.823 71.541C166.516 59.541 162.955 33.541 151.823 18.041C142.207 4.65057 117.698 6.04113 117.698 6.04113H94Z" stroke="#E01E41" stroke-width="4"/>
<path d="M3 159.626L36.25 2L73 159.626H3Z" stroke="#E01E41" stroke-width="4"/>
</svg>
