<svg width="164" height="844" viewBox="0 0 164 844" fill="none" xmlns="http://www.w3.org/2000/svg">
<path d="M2 96L162 96L162 166L2 166L76.4304 130.741L2 96Z" stroke="#E01E41" stroke-width="4"/>
<path d="M162 5V75L82 75M82 75H2L2 5L82 75ZM82 75V5" stroke="#E01E41" stroke-width="4"/>
<path d="M150.409 744.827C135.412 752.546 37.2521 753.553 16.3474 744.827C-4.55725 736.101 -0.921503 692.807 16.3474 686.43C33.6163 680.053 134.504 678.375 150.409 686.43C166.315 694.485 165.406 737.108 150.409 744.827Z" stroke="#E01E41" stroke-width="4"/>
<path d="M150.149 772C166.411 780.701 165.482 826.742 150.149 835.08C134.816 843.418 25.1964 845.155 13.0839 835.08C0.971438 825.005 -4.14142 793.68 13.0839 772" stroke="#E01E41" stroke-width="4"/>
<path d="M150.149 338C166.411 346.701 165.482 392.742 150.149 401.08C134.816 409.418 25.1964 411.155 13.0839 401.08C0.971438 391.005 -4.14142 359.68 13.0839 338" stroke="#E01E41" stroke-width="4"/>
<path d="M162 590L2 660H162V590ZM162 590H2" stroke="#E01E41" stroke-width="4"/>
<path d="M162 534H2M2 534L2 569M2 534L2 499" stroke="#E01E41" stroke-width="4"/>
<path d="M162 282H2M2 282L2 317M2 282L2 247" stroke="#E01E41" stroke-width="4"/>
<path d="M162 499L2 465.75L162 429V499Z" stroke="#E01E41" stroke-width="4"/>
</svg>
